<svg width="52" height="52" viewBox="0 0 52 52" fill="none" xmlns="http://www.w3.org/2000/svg">
<path fill-rule="evenodd" clip-rule="evenodd" d="M38.3685 35.0299C38.3685 35.03 38.3685 35.03 38.3685 35.03C38.3701 35.0383 38.3717 35.0466 38.3733 35.0549C38.3717 35.0466 38.3701 35.0383 38.3685 35.0299ZM16.4802 35.9922V40.8414L17.0755 41.1887C19.738 42.7419 22.6485 43.6403 26.0001 43.6403C29.3516 43.6403 32.2623 42.7419 34.9247 41.1887L35.5201 40.8414V35.9922C35.5201 35.0931 35.2043 34.0336 34.1595 33.3337C29.1861 29.9455 22.6079 29.9282 17.8147 33.3519L17.7339 33.4096L17.6636 33.4798C17.1699 33.9735 16.4802 34.8895 16.4802 35.9922ZM37.2802 36.2002V40.0679L39.3913 37.6051C42.0551 34.4975 43.8402 30.2742 43.8402 25.8001C43.8402 15.9854 35.8149 7.96012 26.0002 7.96012C16.1855 7.96012 8.16021 15.9854 8.16021 25.8001C8.16021 30.2743 9.94533 34.4976 12.6091 37.6051L14.7202 40.0678V36.2002C14.7202 34.4755 15.5939 32.8093 16.8603 32.0179L16.8795 32.0059L16.8981 31.9932C22.3348 28.3041 29.6837 28.1308 35.0672 31.9684C36.4564 33.0152 37.2802 34.5429 37.2802 36.2002ZM6.40021 25.8002C6.40021 15.0229 15.2229 6.2002 26.0002 6.2002C36.7775 6.2002 45.6002 15.0229 45.6002 25.8002C45.6002 36.5775 36.7775 45.4002 26.0002 45.4002C15.2229 45.4002 6.40021 36.5775 6.40021 25.8002Z" fill="#FF002D"/>
<path fill-rule="evenodd" clip-rule="evenodd" d="M20.9598 19.56C20.9598 16.6866 23.1264 14.52 25.9998 14.52C28.8732 14.52 31.0398 16.6866 31.0398 19.56C31.0398 22.4334 28.8732 24.6 25.9998 24.6C23.1264 24.6 20.9598 22.4334 20.9598 19.56ZM22.7198 19.56C22.7198 20.4567 23.0239 21.2972 23.6432 21.9166C24.2626 22.5359 25.1031 22.84 25.9998 22.84C26.8965 22.84 27.737 22.5359 28.3563 21.9166C28.9757 21.2972 29.2798 20.4567 29.2798 19.56C29.2798 18.6633 28.9757 17.8228 28.3563 17.2035C27.737 16.5841 26.8965 16.28 25.9998 16.28C25.1031 16.28 24.2626 16.5841 23.6432 17.2035C23.0239 17.8228 22.7198 18.6633 22.7198 19.56Z" fill="#FF002D"/>
</svg>
