<svg width="52" height="52" viewBox="0 0 52 52" fill="none" xmlns="http://www.w3.org/2000/svg">
<path fill-rule="evenodd" clip-rule="evenodd" d="M37.2802 8.28027V16.6003H45.6002V38.2803C45.6002 41.1537 43.4336 43.3203 40.5602 43.3203H11.4402C8.5668 43.3203 6.40021 41.1537 6.40021 38.2803V8.28027H37.2802ZM8.16021 10.0403V39.4803H8.35946C8.5121 39.9121 8.75296 40.306 9.08377 40.6368C9.70312 41.2562 10.5436 41.5603 11.4403 41.5603H36.4015L35.8747 39.9806C35.6668 39.3574 35.5202 38.8981 35.5202 38.2803V10.0403H8.16021ZM43.8402 18.3603H37.2802V38.2803C37.2802 39.177 37.5843 40.0175 38.2037 40.6368C38.823 41.2562 39.6635 41.5603 40.5602 41.5603C41.4569 41.5603 42.2974 41.2562 42.9168 40.6368C43.5361 40.0175 43.8402 39.177 43.8402 38.2803V18.3603Z" fill="#FF002D"/>
<path fill-rule="evenodd" clip-rule="evenodd" d="M16.4805 24.9201H23.0405V18.3601H16.4805V24.9201ZM24.8005 26.6801H14.7205V16.6001H24.8005V26.6801Z" fill="#FF002D"/>
</svg>
