<svg width="52" height="52" viewBox="0 0 52 52" fill="none" xmlns="http://www.w3.org/2000/svg">
<path fill-rule="evenodd" clip-rule="evenodd" d="M26.3233 45.0961L25.9445 45.2855L25.4263 45.0783C16.5032 41.1029 10.5594 32.1737 10.5594 22.264V15.6811L11.1778 15.5044L11.2098 15.4933C16.0234 13.819 20.4052 12.2913 25.3921 7.3044L25.9997 6.69678L26.6073 7.3044C31.5943 12.2914 35.9761 13.8191 40.7896 15.4933L40.8216 15.5044L41.4399 15.6811L41.4393 22.2637C41.4393 32.1768 35.4911 41.1101 26.3528 45.0832L26.3233 45.0961ZM25.499 43.1144L26 43.3446L26.501 43.1144C34.6381 39.3758 39.68 31.2441 39.68 22.264V16.7949L38.8247 16.5384C34.7769 15.3244 31.0019 13.7312 26.8051 9.93413L26 9.20575L25.1949 9.93414C21.0135 13.7173 17.2535 15.1096 13.1235 16.5552L12.32 16.8365V22.264C12.32 31.2441 17.362 39.3756 25.499 43.1144Z" fill="#FF002D"/>
<path fill-rule="evenodd" clip-rule="evenodd" d="M25.12 33.2402H26.88V35.0002H25.12V33.2402Z" fill="#FF002D"/>
<path fill-rule="evenodd" clip-rule="evenodd" d="M25.12 18.6802H26.88V26.6802H25.12V18.6802Z" fill="#FF002D"/>
</svg>
