<svg width="560" height="560" viewBox="0 0 560 560" fill="none" xmlns="http://www.w3.org/2000/svg">
<g clip-path="url(#clip0_402_6)">
<path d="M280 560C434.64 560 560 434.64 560 280C560 125.36 434.64 0 280 0C125.36 0 0 125.36 0 280C0 434.64 125.36 560 280 560Z" fill="#CFA967"/>
<path d="M280.35 296.537V436.415L384.422 408.38L408.87 139.055H280.35V253.365L285.67 236.793H299.6L280.35 296.537ZM151.13 428.207L122.5 113.75H437.5L408.87 428.207L279.65 463.75L151.13 428.207ZM241.482 309.33V296.362L198.275 279.143L241.5 261.818V248.832L179.777 273.91V284.27L241.482 309.33ZM380.31 284.27L318.587 309.33V296.362L361.812 279.09L318.587 261.818V248.832L380.31 273.91V284.27ZM280.35 296.52V253.365L257.303 325.237H271.093L280.35 296.52Z" fill="white"/>
</g>
<defs>
<clipPath id="clip0_402_6">
<rect width="560" height="560" fill="white"/>
</clipPath>
</defs>
</svg>
