<svg width="48" height="48" viewBox="0 0 48 48" fill="none" xmlns="http://www.w3.org/2000/svg">
<g clip-path="url(#clip0_1353_4268)">
<path d="M48 0H0V48H48V0Z" fill="url(#paint0_linear_1353_4268)"/>
<path fill-rule="evenodd" clip-rule="evenodd" d="M33.9691 14.0308H14.0307C11.9925 14.0308 10.3384 15.6849 10.3384 17.7231V30.2769C10.3384 32.3151 11.9925 33.9692 14.0307 33.9692H33.9691C36.0073 33.9692 37.6615 32.3151 37.6615 30.2769V17.7231C37.6615 15.6849 36.0073 14.0308 33.9691 14.0308ZM31.2295 26.8985C31.2885 27.2492 31.3439 27.504 31.3845 27.5778L31.2775 27.6923C31.2775 27.6923 30.7199 27.5815 30.0221 27.5077C26.0233 27.0757 21.9913 27.0757 17.9888 27.5077C17.2873 27.5815 16.8775 27.6517 16.7224 27.6923L16.6153 27.5815C16.6559 27.504 16.7113 27.2492 16.7704 26.8948C17.0953 24.9785 17.0953 23.0178 16.7704 21.1015C16.7113 20.7508 16.6559 20.496 16.6153 20.4221L16.7224 20.3077C16.8295 20.3409 17.2799 20.4185 17.9778 20.4923C21.9765 20.9243 26.0085 20.9243 30.011 20.4923C30.7125 20.4148 31.1335 20.3483 31.2775 20.3077L31.3845 20.4185C31.3439 20.5366 31.2885 20.7508 31.2295 21.1015C30.9045 23.0215 30.9045 24.9821 31.2295 26.8985Z" fill="white"/>
</g>
<defs>
<linearGradient id="paint0_linear_1353_4268" x1="-12.4837" y1="-3.02769" x2="60.0849" y2="50.7323" gradientUnits="userSpaceOnUse">
<stop offset="0.11" stop-color="#72056D"/>
<stop offset="0.89" stop-color="#E7061F"/>
</linearGradient>
<clipPath id="clip0_1353_4268">
<rect width="48" height="48" fill="white"/>
</clipPath>
</defs>
</svg>
