<svg width="48" height="48" viewBox="0 0 48 48" fill="none" xmlns="http://www.w3.org/2000/svg">
<path d="M48 0H0V48H48V0Z" fill="url(#paint0_linear_1409_11438)"/>
<path d="M18.4617 21.4153V17.3538C18.4617 15.1089 20.282 13.2922 22.5233 13.2922H30.6427C32.8876 13.2922 34.7042 15.1125 34.7042 17.3538V25.4732C34.7042 27.7181 32.8839 29.5347 30.6427 29.5347H26.5811V33.5962C26.5811 35.8412 24.7608 37.6578 22.5196 37.6578C20.2783 37.6578 18.458 35.8375 18.458 33.5962V29.5347H14.3965C12.1516 29.5347 10.335 27.7181 10.335 25.4732C10.335 23.2282 12.1516 21.4116 14.3965 21.4116H18.458L18.4617 21.4153Z" fill="white"/>
<defs>
<linearGradient id="paint0_linear_1409_11438" x1="0.184615" y1="24" x2="48.1846" y2="24" gradientUnits="userSpaceOnUse">
<stop stop-color="#C4DBE1"/>
<stop offset="0.53" stop-color="#B2A0E6"/>
<stop offset="0.89" stop-color="#7D6CE9"/>
</linearGradient>
</defs>
</svg>
