<svg width="48" height="48" viewBox="0 0 48 48" fill="none" xmlns="http://www.w3.org/2000/svg">
<path d="M48 0H0V48H48V0Z" fill="#FF002D"/>
<path d="M33.2306 37.6616C35.6776 37.6616 37.6613 35.6779 37.6613 33.2308C37.6613 30.7838 35.6776 28.8 33.2306 28.8C30.7835 28.8 28.7998 30.7838 28.7998 33.2308C28.7998 35.6779 30.7835 37.6616 33.2306 37.6616Z" fill="white"/>
<path d="M14.7696 37.6616C17.2167 37.6616 19.2004 35.6779 19.2004 33.2308C19.2004 30.7838 17.2167 28.8 14.7696 28.8C12.3226 28.8 10.3389 30.7838 10.3389 33.2308C10.3389 35.6779 12.3226 37.6616 14.7696 37.6616Z" fill="white"/>
</svg>
