<svg width="48" height="48" viewBox="0 0 48 48" fill="none" xmlns="http://www.w3.org/2000/svg">
<path d="M48 0H0V48H48V0Z" fill="#FF002D"/>
<path d="M28.1939 26.5331L25.3767 28.3054C24.5348 28.8334 23.4678 28.8334 22.6259 28.3054L19.8087 26.5331C18.413 25.6543 16.6481 25.6174 15.2155 26.4371L11.0801 28.8001V37.6617L16.3896 34.6303C17.0985 34.2241 17.9736 34.2426 18.6678 34.6783L21.9096 36.7165C23.1798 37.514 24.8044 37.4845 26.045 36.6352L29.4678 34.2906C30.0733 33.8734 30.8708 33.8586 31.4948 34.25L36.9299 37.6654V28.8038L32.7945 26.4408C31.3619 25.6211 29.597 25.658 28.2013 26.5368L28.1939 26.5331Z" fill="white"/>
<path d="M32.1232 20.6769C34.7742 20.6769 36.9232 18.5279 36.9232 15.8769C36.9232 13.2259 34.7742 11.0769 32.1232 11.0769C29.4723 11.0769 27.3232 13.2259 27.3232 15.8769C27.3232 18.5279 29.4723 20.6769 32.1232 20.6769Z" fill="white"/>
</svg>
