<svg width="32" height="23" viewBox="0 0 32 23" fill="none" xmlns="http://www.w3.org/2000/svg">
<path d="M31.2185 18.2049C31.2185 20.7383 29.0694 22.8013 26.4301 22.8013H0.376953V4.59645C0.376953 2.06297 2.52606 0 5.16531 0H31.2185V18.2049Z" fill="black"/>
<path d="M22.7363 13.5361H24.7158C24.7723 13.5361 24.9043 13.518 24.9608 13.518C25.3379 13.4456 25.6584 13.1199 25.6584 12.6674C25.6584 12.2331 25.3379 11.9074 24.9608 11.8169C24.9043 11.7988 24.7912 11.7988 24.7158 11.7988H22.7363V13.5361Z" fill="url(#paint0_linear_2581_40977)"/>
<path d="M24.4889 1.53809C22.6038 1.53809 21.0579 3.00388 21.0579 4.83161V8.2518H25.9028C26.0159 8.2518 26.1479 8.2518 26.2422 8.2699C27.3356 8.32419 28.1462 8.86708 28.1462 9.80808C28.1462 10.55 27.5995 11.1834 26.5815 11.3101V11.3463C27.6937 11.4187 28.5421 12.0158 28.5421 12.9387C28.5421 13.934 27.5995 14.5855 26.3553 14.5855H21.0391V21.2811H26.0725C27.9577 21.2811 29.5035 19.8153 29.5035 17.9876V1.53809H24.4889Z" fill="url(#paint1_linear_2581_40977)"/>
<path d="M25.4133 10.0248C25.4133 9.59044 25.0928 9.3009 24.7158 9.24661C24.6781 9.24661 24.5838 9.22852 24.5272 9.22852H22.7363V10.821H24.5272C24.5838 10.821 24.6969 10.821 24.7158 10.8029C25.0928 10.7486 25.4133 10.4591 25.4133 10.0248Z" fill="url(#paint2_linear_2581_40977)"/>
<path d="M5.5241 1.53809C3.63892 1.53809 2.09307 3.00388 2.09307 4.83161V12.9568C3.05451 13.4092 4.05366 13.6988 5.0528 13.6988C6.24046 13.6988 6.88142 13.0111 6.88142 12.0701V8.23371H9.8223V12.052C9.8223 13.5359 8.86086 14.7484 5.5995 14.7484C3.62007 14.7484 2.07422 14.3322 2.07422 14.3322V21.263H7.10765C8.99282 21.263 10.5387 19.7972 10.5387 17.9695V1.53809H5.5241Z" fill="url(#paint3_linear_2581_40977)"/>
<path d="M15.0052 1.53809C13.1201 1.53809 11.5742 3.00388 11.5742 4.83161V9.13852C12.4414 8.43277 13.9495 7.98036 16.3814 8.08894C17.6822 8.14323 19.0772 8.48705 19.0772 8.48705V9.88047C18.3797 9.53664 17.5502 9.229 16.4757 9.15662C14.6282 9.02994 13.516 9.89856 13.516 11.4187C13.516 12.9568 14.6282 13.8255 16.4757 13.6807C17.5502 13.6083 18.3797 13.2826 19.0772 12.9568V14.3502C19.0772 14.3502 17.7011 14.6941 16.3814 14.7484C13.9495 14.8569 12.4414 14.4045 11.5742 13.6988V21.2992H16.6076C18.4928 21.2992 20.0387 19.8334 20.0387 18.0057V1.53809H15.0052Z" fill="url(#paint4_linear_2581_40977)"/>
<defs>
<linearGradient id="paint0_linear_2581_40977" x1="21.0554" y1="12.6696" x2="29.5269" y2="12.6696" gradientUnits="userSpaceOnUse">
<stop stop-color="#007940"/>
<stop offset="0.2285" stop-color="#00873F"/>
<stop offset="0.7433" stop-color="#40A737"/>
<stop offset="1" stop-color="#5CB531"/>
</linearGradient>
<linearGradient id="paint1_linear_2581_40977" x1="21.0545" y1="11.4017" x2="29.5267" y2="11.4017" gradientUnits="userSpaceOnUse">
<stop stop-color="#007940"/>
<stop offset="0.2285" stop-color="#00873F"/>
<stop offset="0.7433" stop-color="#40A737"/>
<stop offset="1" stop-color="#5CB531"/>
</linearGradient>
<linearGradient id="paint2_linear_2581_40977" x1="21.0552" y1="10.0225" x2="29.527" y2="10.0225" gradientUnits="userSpaceOnUse">
<stop stop-color="#007940"/>
<stop offset="0.2285" stop-color="#00873F"/>
<stop offset="0.7433" stop-color="#40A737"/>
<stop offset="1" stop-color="#5CB531"/>
</linearGradient>
<linearGradient id="paint3_linear_2581_40977" x1="2.08908" y1="11.4017" x2="10.6917" y2="11.4017" gradientUnits="userSpaceOnUse">
<stop stop-color="#1F286F"/>
<stop offset="0.4751" stop-color="#004E94"/>
<stop offset="0.8261" stop-color="#0066B1"/>
<stop offset="1" stop-color="#006FBC"/>
</linearGradient>
<linearGradient id="paint4_linear_2581_40977" x1="11.5255" y1="11.4017" x2="19.8806" y2="11.4017" gradientUnits="userSpaceOnUse">
<stop stop-color="#6C2C2F"/>
<stop offset="0.1735" stop-color="#882730"/>
<stop offset="0.5731" stop-color="#BE1833"/>
<stop offset="0.8585" stop-color="#DC0436"/>
<stop offset="1" stop-color="#E60039"/>
</linearGradient>
</defs>
</svg>
