<svg width="26" height="20" viewBox="0 0 26 20" fill="none" xmlns="http://www.w3.org/2000/svg">
<path d="M18.7495 11.8583H20.4018C20.449 11.8583 20.5591 11.8426 20.6064 11.8426C20.9211 11.7796 21.1886 11.4964 21.1886 11.103C21.1886 10.7253 20.9211 10.4421 20.6064 10.3634C20.5591 10.3477 20.4647 10.3477 20.4018 10.3477H18.7495V11.8583Z" fill="url(#paint0_linear_2302_123556)"/>
<path d="M20.2132 1.42578C18.6396 1.42578 17.3492 2.70039 17.3492 4.28971V7.26379H21.3934C21.4878 7.26379 21.5979 7.26379 21.6766 7.27953C22.5893 7.32674 23.2659 7.79882 23.2659 8.61708C23.2659 9.26225 22.8096 9.81301 21.9598 9.92316V9.95463C22.8883 10.0176 23.5964 10.5369 23.5964 11.3394C23.5964 12.2049 22.8096 12.7714 21.771 12.7714H17.3335V18.5936H21.535C23.1086 18.5936 24.3989 17.319 24.3989 15.7297V1.42578H20.2132Z" fill="url(#paint1_linear_2302_123556)"/>
<path d="M20.984 8.80566C20.984 8.428 20.7165 8.17622 20.4018 8.12902C20.3703 8.12902 20.2916 8.11328 20.2444 8.11328H18.7495V9.49804H20.2444C20.2916 9.49804 20.3861 9.49804 20.4018 9.48231C20.7165 9.4351 20.984 9.18332 20.984 8.80566Z" fill="url(#paint2_linear_2302_123556)"/>
<path d="M4.38309 1.42578C2.8095 1.42578 1.51915 2.70039 1.51915 4.28971V11.3551C2.32168 11.7485 3.15569 12.0003 3.98969 12.0003C4.98105 12.0003 5.51607 11.4023 5.51607 10.5841V7.24806H7.97087V10.5683C7.97087 11.8587 7.16834 12.913 4.44603 12.913C2.79376 12.913 1.50342 12.5511 1.50342 12.5511V18.5779H5.7049C7.27849 18.5779 8.56884 17.3033 8.56884 15.714V1.42578H4.38309Z" fill="url(#paint3_linear_2302_123556)"/>
<path d="M12.298 1.42578C10.7244 1.42578 9.43408 2.70039 9.43408 4.28971V8.03486C10.1579 7.42116 11.4168 7.02776 13.4467 7.12218C14.5325 7.16938 15.697 7.46836 15.697 7.46836V8.68003C15.1147 8.38105 14.4224 8.11354 13.5254 8.05059C11.9833 7.94044 11.0549 8.69577 11.0549 10.0176C11.0549 11.3551 11.9833 12.1105 13.5254 11.9846C14.4224 11.9216 15.1147 11.6384 15.697 11.3551V12.5668C15.697 12.5668 14.5482 12.8658 13.4467 12.913C11.4168 13.0074 10.1579 12.614 9.43408 12.0003V18.6094H13.6356C15.2092 18.6094 16.4995 17.3348 16.4995 15.7454V1.42578H12.298Z" fill="url(#paint4_linear_2302_123556)"/>
<defs>
<linearGradient id="paint0_linear_2302_123556" x1="17.3464" y1="11.1049" x2="24.4177" y2="11.1049" gradientUnits="userSpaceOnUse">
<stop stop-color="#007940"/>
<stop offset="0.2285" stop-color="#00873F"/>
<stop offset="0.7433" stop-color="#40A737"/>
<stop offset="1" stop-color="#5CB531"/>
</linearGradient>
<linearGradient id="paint1_linear_2302_123556" x1="17.3464" y1="10.0028" x2="24.4182" y2="10.0028" gradientUnits="userSpaceOnUse">
<stop stop-color="#007940"/>
<stop offset="0.2285" stop-color="#00873F"/>
<stop offset="0.7433" stop-color="#40A737"/>
<stop offset="1" stop-color="#5CB531"/>
</linearGradient>
<linearGradient id="paint2_linear_2302_123556" x1="17.3462" y1="8.80369" x2="24.4178" y2="8.80369" gradientUnits="userSpaceOnUse">
<stop stop-color="#007940"/>
<stop offset="0.2285" stop-color="#00873F"/>
<stop offset="0.7433" stop-color="#40A737"/>
<stop offset="1" stop-color="#5CB531"/>
</linearGradient>
<linearGradient id="paint3_linear_2302_123556" x1="1.51582" y1="10.0028" x2="8.69659" y2="10.0028" gradientUnits="userSpaceOnUse">
<stop stop-color="#1F286F"/>
<stop offset="0.4751" stop-color="#004E94"/>
<stop offset="0.8261" stop-color="#0066B1"/>
<stop offset="1" stop-color="#006FBC"/>
</linearGradient>
<linearGradient id="paint4_linear_2302_123556" x1="9.3934" y1="10.0028" x2="16.3676" y2="10.0028" gradientUnits="userSpaceOnUse">
<stop stop-color="#6C2C2F"/>
<stop offset="0.1735" stop-color="#882730"/>
<stop offset="0.5731" stop-color="#BE1833"/>
<stop offset="0.8585" stop-color="#DC0436"/>
<stop offset="1" stop-color="#E60039"/>
</linearGradient>
</defs>
</svg>
