<svg width="27" height="20" viewBox="0 0 27 20" fill="none" xmlns="http://www.w3.org/2000/svg">
<path fill-rule="evenodd" clip-rule="evenodd" d="M26.2735 19.5973C26.2464 19.5862 26.2183 19.5807 26.1876 19.5807C26.1563 19.5807 26.1277 19.5862 26.1006 19.5973C26.0736 19.6079 26.0501 19.6231 26.0303 19.6423C26.0106 19.661 25.9949 19.6832 25.9835 19.709C25.972 19.7342 25.9663 19.7615 25.9663 19.7903C25.9663 19.8191 25.972 19.8464 25.9835 19.8717C25.9949 19.8969 26.0106 19.9192 26.0303 19.9384C26.0501 19.9571 26.0736 19.9722 26.1006 19.9833C26.1277 19.9944 26.1563 20 26.1876 20C26.2183 20 26.2464 19.9944 26.2735 19.9833C26.3 19.9722 26.3229 19.9571 26.3432 19.9384C26.363 19.9192 26.3786 19.8969 26.3901 19.8717C26.4015 19.8464 26.4073 19.8191 26.4073 19.7903C26.4073 19.7615 26.4015 19.7342 26.3901 19.709C26.3786 19.6832 26.363 19.661 26.3432 19.6423C26.3229 19.6231 26.3 19.6079 26.2735 19.5973ZM26.1875 19.9531C26.2109 19.9531 26.2328 19.9486 26.2526 19.94C26.2729 19.9314 26.2906 19.9198 26.3057 19.9051C26.3208 19.8905 26.3327 19.8733 26.3416 19.8531C26.3499 19.8334 26.3546 19.8122 26.3546 19.7894C26.3546 19.7667 26.3499 19.7455 26.3416 19.7258C26.3327 19.7061 26.3208 19.6884 26.3057 19.6737C26.2906 19.6591 26.2729 19.6475 26.2526 19.6389C26.2328 19.6308 26.2109 19.6267 26.1875 19.6267C26.164 19.6267 26.1417 19.6308 26.1214 19.6389C26.1005 19.6475 26.0823 19.6591 26.0672 19.6737C26.0521 19.6884 26.0401 19.7061 26.0318 19.7258C26.023 19.7455 26.0188 19.7667 26.0188 19.7894C26.0188 19.8122 26.023 19.8334 26.0318 19.8531C26.0401 19.8733 26.0521 19.8905 26.0672 19.9051C26.0823 19.9198 26.1005 19.9314 26.1214 19.94C26.1417 19.9486 26.164 19.9531 26.1875 19.9531ZM26.2597 19.7089C26.2456 19.6978 26.2258 19.6922 26.2003 19.6922H26.1077V19.8867H26.1504V19.814H26.1701L26.2311 19.8867H26.2821L26.2165 19.8135C26.2373 19.8109 26.2529 19.8044 26.2638 19.7943C26.2753 19.7837 26.2805 19.7705 26.2805 19.7543C26.2805 19.7352 26.2737 19.72 26.2597 19.7089ZM26.1506 19.7812V19.7292H26.2001C26.211 19.7292 26.2204 19.7312 26.2272 19.7358C26.2334 19.7398 26.2371 19.7464 26.2371 19.755C26.2371 19.7636 26.2334 19.7706 26.2272 19.7747C26.2204 19.7787 26.211 19.7812 26.2001 19.7812H26.1506ZM5.90405 18.8323C5.90405 18.4615 6.15446 18.1568 6.56366 18.1568C6.95464 18.1568 7.21858 18.4483 7.21858 18.8323C7.21858 19.2163 6.95464 19.5078 6.56366 19.5078C6.15446 19.5078 5.90405 19.2032 5.90405 18.8323ZM7.66401 17.7785V18.8334V19.8884H7.19129V19.6322C7.04135 19.8222 6.81383 19.9414 6.50458 19.9414C5.89493 19.9414 5.41699 19.4781 5.41699 18.8334C5.41699 18.1893 5.89493 17.7255 6.50458 17.7255C6.81383 17.7255 7.04135 17.8447 7.19129 18.0347V17.7785H7.66401ZM23.6387 18.8323C23.6387 18.4615 23.8891 18.1568 24.2983 18.1568C24.6898 18.1568 24.9532 18.4483 24.9532 18.8323C24.9532 19.2163 24.6898 19.5078 24.2983 19.5078C23.8891 19.5078 23.6387 19.2032 23.6387 18.8323ZM25.3991 16.9313V18.8334V19.8884H24.9258V19.6322C24.7759 19.8222 24.5484 19.9414 24.2392 19.9414C23.6295 19.9414 23.1516 19.4781 23.1516 18.8334C23.1516 18.1893 23.6295 17.7255 24.2392 17.7255C24.5484 17.7255 24.7759 17.8447 24.9258 18.0347V16.9313H25.3991ZM13.5317 18.1327C13.8363 18.1327 14.032 18.3182 14.082 18.6445H12.9539C13.0044 18.3399 13.1949 18.1327 13.5317 18.1327ZM12.4585 18.8334C12.4585 18.1756 12.9041 17.7255 13.5414 17.7255C14.1505 17.7255 14.569 18.1756 14.5737 18.8334C14.5737 18.8951 14.569 18.9527 14.5643 19.0098H12.9499C13.0181 19.3897 13.2956 19.5266 13.6002 19.5266C13.8183 19.5266 14.0505 19.4468 14.2327 19.3058L14.4644 19.6458C14.2004 19.8621 13.9006 19.9414 13.5731 19.9414C12.9224 19.9414 12.4585 19.5044 12.4585 18.8334ZM19.2493 18.8323C19.2493 18.4615 19.4997 18.1568 19.9089 18.1568C20.2999 18.1568 20.5638 18.4483 20.5638 18.8323C20.5638 19.2163 20.2999 19.5078 19.9089 19.5078C19.4997 19.5078 19.2493 19.2032 19.2493 18.8323ZM21.0094 17.7785V18.8334V19.8884H20.5367V19.6322C20.3862 19.8222 20.1592 19.9414 19.85 19.9414C19.2404 19.9414 18.7625 19.4781 18.7625 18.8334C18.7625 18.1893 19.2404 17.7255 19.85 17.7255C20.1592 17.7255 20.3862 17.8447 20.5367 18.0347V17.7785H21.0094ZM16.5798 18.8334C16.5798 19.4736 17.039 19.9414 17.7397 19.9414C18.0672 19.9414 18.2853 19.8707 18.5217 19.6898L18.2947 19.319C18.1172 19.4427 17.9308 19.5089 17.7257 19.5089C17.3482 19.5044 17.0708 19.2396 17.0708 18.8334C17.0708 18.4272 17.3482 18.1625 17.7257 18.1579C17.9308 18.1579 18.1172 18.2241 18.2947 18.3479L18.5217 17.9771C18.2853 17.7962 18.0672 17.7255 17.7397 17.7255C17.039 17.7255 16.5798 18.1933 16.5798 18.8334ZM22.1011 18.033C22.224 17.8476 22.4015 17.7238 22.6743 17.7238C22.7701 17.7238 22.9065 17.7415 23.0111 17.7814L22.8654 18.2139C22.7654 18.174 22.6655 18.1609 22.5697 18.1609C22.2604 18.1609 22.1058 18.3549 22.1058 18.704V19.8867H21.6326V17.7769H22.1011V18.033ZM10.0026 17.9463C9.77511 17.8008 9.46171 17.7255 9.11602 17.7255C8.56522 17.7255 8.21069 17.9816 8.21069 18.401C8.21069 18.745 8.47464 18.9572 8.96088 19.0234L9.18422 19.0542C9.44348 19.0896 9.56583 19.1558 9.56583 19.275C9.56583 19.4382 9.39299 19.5312 9.07021 19.5312C8.74275 19.5312 8.50639 19.4296 8.34709 19.3104L8.12427 19.6676C8.38353 19.853 8.71099 19.9414 9.06552 19.9414C9.69337 19.9414 10.0573 19.6544 10.0573 19.2528C10.0573 18.8819 9.77095 18.6879 9.29771 18.6217L9.07489 18.5904C8.8703 18.5642 8.70631 18.5247 8.70631 18.3833C8.70631 18.2287 8.86093 18.1362 9.12019 18.1362C9.39767 18.1362 9.6663 18.2378 9.79802 18.3171L10.0026 17.9463ZM15.5291 18.033C15.6514 17.8476 15.829 17.7238 16.1018 17.7238C16.1976 17.7238 16.334 17.7415 16.4386 17.7814L16.2928 18.2139C16.1929 18.174 16.0929 18.1609 15.9971 18.1609C15.6879 18.1609 15.5333 18.3549 15.5333 18.704V19.8867H15.0605V17.7769H15.5291V18.033ZM12.0677 17.7785H11.2946V17.1384H10.8167V17.7785H10.3757V18.1979H10.8167V19.1603C10.8167 19.6499 11.0124 19.9414 11.5716 19.9414C11.7767 19.9414 12.013 19.8798 12.163 19.7782L12.0266 19.3851C11.8855 19.4645 11.7309 19.5044 11.608 19.5044C11.3717 19.5044 11.2946 19.3629 11.2946 19.1512V18.1979H12.0677V17.7785ZM4.99924 18.5625V19.8867H4.52133V18.7126C4.52133 18.3549 4.36671 18.1563 4.04393 18.1563C3.73001 18.1563 3.51187 18.3508 3.51187 18.7171V19.8867H3.03396V18.7126C3.03396 18.3549 2.87517 18.1563 2.56125 18.1563C2.23795 18.1563 2.02867 18.3508 2.02867 18.7171V19.8867H1.55127L1.55127 17.7769H2.0245V18.0371C2.20203 17.79 2.42901 17.7238 2.6612 17.7238C2.99335 17.7238 3.2297 17.8653 3.37964 18.0992C3.58007 17.8032 3.86641 17.7193 4.14389 17.7238C4.67178 17.7284 4.99924 18.0639 4.99924 18.5625Z" fill="black"/>
<path fill-rule="evenodd" clip-rule="evenodd" d="M25.9165 12.6154V12.8711H25.8582V12.6154H25.752V12.5634H26.0227V12.6154H25.9165ZM26.4417 12.5629V12.8711H26.3834V12.6382L26.2939 12.8393H26.233L26.1434 12.6387V12.8711H26.0846V12.5629H26.1679L26.2632 12.7746L26.359 12.5629H26.4417Z" fill="#F79410"/>
<path d="M17.0291 14.1945H9.86475V1.69922H17.0291V14.1945Z" fill="#FF5F00"/>
<path d="M10.3237 7.94778C10.3237 5.41305 11.5466 3.15518 13.451 1.70012C12.0584 0.636108 10.3008 0.00103569 8.3907 0.00103569C3.86871 0.00103569 0.203125 3.55886 0.203125 7.94778C0.203125 12.3367 3.86871 15.8945 8.3907 15.8945C10.3008 15.8945 12.0584 15.2595 13.451 14.1954C11.5466 12.7404 10.3237 10.4825 10.3237 7.94778Z" fill="#EB001B"/>
<path d="M26.6917 7.94778C26.6917 12.3367 23.0262 15.8945 18.5042 15.8945C16.5941 15.8945 14.8365 15.2595 13.4434 14.1954C15.3483 12.7404 16.5712 10.4825 16.5712 7.94778C16.5712 5.41305 15.3483 3.15518 13.4434 1.70012C14.8365 0.636108 16.5941 0.00103569 18.5042 0.00103569C23.0262 0.00103569 26.6917 3.55886 26.6917 7.94778Z" fill="#F79E1B"/>
</svg>
