<svg width="26" height="17" viewBox="0 0 26 17" fill="none" xmlns="http://www.w3.org/2000/svg">
<path fill-rule="evenodd" clip-rule="evenodd" d="M24.5908 13.0496V13.2988H24.5358V13.0496H24.4355V12.9989H24.691V13.0496H24.5908ZM25.0866 12.9984V13.2988H25.0316V13.0718L24.947 13.2678H24.8896L24.805 13.0723V13.2988H24.7495V12.9984H24.8281L24.9181 13.2048L25.0085 12.9984H25.0866Z" fill="#F79410"/>
<path d="M16.1903 14.591H9.41797V2.41113H16.1903V14.591Z" fill="#FF5F00"/>
<path d="M9.85194 8.49994C9.85194 6.02919 11.0079 3.82832 12.8081 2.40999C11.4917 1.37284 9.83028 0.753796 8.0247 0.753796C3.75016 0.753796 0.285156 4.22181 0.285156 8.49994C0.285156 12.7781 3.75016 16.2461 8.0247 16.2461C9.83028 16.2461 11.4917 15.6271 12.8081 14.5899C11.0079 13.1716 9.85194 10.9707 9.85194 8.49994" fill="#EB001B"/>
<path d="M25.3242 8.49994C25.3242 12.7781 21.8592 16.2461 17.5847 16.2461C15.7791 16.2461 14.1177 15.6271 12.8008 14.5899C14.6014 13.1716 15.7574 10.9707 15.7574 8.49994C15.7574 6.02919 14.6014 3.82832 12.8008 2.40999C14.1177 1.37284 15.7791 0.753796 17.5847 0.753796C21.8592 0.753796 25.3242 4.22181 25.3242 8.49994" fill="#F79E1B"/>
</svg>
