<svg width="35" height="11" viewBox="0 0 35 11" fill="none" xmlns="http://www.w3.org/2000/svg">
<path fill-rule="evenodd" clip-rule="evenodd" d="M9.50049 0.994141V0.998076C9.49628 0.998076 8.17035 0.994141 7.81677 2.17869C7.49265 3.26485 6.57923 6.2636 6.55398 6.34624H6.30142C6.30142 6.34624 5.36696 3.28059 5.03863 2.17475C4.68505 0.990205 3.35491 0.994141 3.35491 0.994141H0.324219V10.0061H3.35491V4.65403H3.48119H3.60747L5.37537 10.0061H7.48002L9.24793 4.65797H9.50049V10.0061H12.5312V0.994141H9.50049Z" fill="#4DB45E"/>
<path fill-rule="evenodd" clip-rule="evenodd" d="M20.5708 0.994141C20.5708 0.994141 19.6827 1.06891 19.2659 1.93863L17.1192 6.34624H16.8666V0.994141H13.8359V10.0061H16.6983V10.0061C16.6983 10.0061 17.6285 9.92742 18.0452 9.06164L20.1499 4.65403H20.4025V10.0061H23.4332V0.994141H20.5708Z" fill="#4DB45E"/>
<path fill-rule="evenodd" clip-rule="evenodd" d="M24.7793 5.08691V10.0061H27.81V7.1333H31.0932C32.5244 7.1333 33.7367 6.27933 34.1871 5.08691H24.7793Z" fill="#4DB45E"/>
<path fill-rule="evenodd" clip-rule="evenodd" d="M31.0946 0.994141H24.3555C24.6922 2.70996 26.0687 4.08734 27.8492 4.53597V4.53597C28.2533 4.63829 28.6784 4.69339 29.1162 4.69339H34.3105C34.3568 4.48875 34.3778 4.28017 34.3778 4.06373C34.3778 2.36758 32.9088 0.994141 31.0946 0.994141Z" fill="url(#paint0_linear_2581_40966)"/>
<defs>
<linearGradient id="paint0_linear_2581_40966" x1="24.3563" y1="4.69324" x2="34.3778" y2="4.69324" gradientUnits="userSpaceOnUse">
<stop offset="0.3" stop-color="#00B4E6"/>
<stop offset="1" stop-color="#088CCB"/>
</linearGradient>
</defs>
</svg>
