<svg width="58" height="16" viewBox="0 0 58 16" fill="none" xmlns="http://www.w3.org/2000/svg">
<path fill-rule="evenodd" clip-rule="evenodd" d="M16.1345 0.0156252V0.022599C16.1274 0.022599 13.896 0.0156252 13.3009 2.11474C12.7554 4.03951 11.2182 9.35354 11.1757 9.49999H10.7507C10.7507 9.49999 9.17802 4.0674 8.62547 2.10776C8.03042 0.00865125 5.79188 0.0156252 5.79188 0.0156252H0.691406V15.9856H5.79188V6.50126H6.0044H6.21692L9.19219 15.9856H12.7342L15.7095 6.50823H16.1345V15.9856H21.235V0.0156252H16.1345Z" fill="#4DB45E"/>
<path fill-rule="evenodd" clip-rule="evenodd" d="M34.765 0.015625C34.765 0.015625 33.2703 0.148127 32.569 1.68934L28.9562 9.49999H28.5311V0.015625H23.4307V15.9856H28.2478C28.2478 15.9856 29.8133 15.8462 30.5147 14.3119L34.0566 6.50126H34.4817V15.9856H39.5822V0.015625H34.765Z" fill="#4DB45E"/>
<path fill-rule="evenodd" clip-rule="evenodd" d="M41.8496 7.26953V15.9868H46.9501V10.8959H52.4756C54.8841 10.8959 56.9243 9.38259 57.6823 7.26953H41.8496Z" fill="#4DB45E"/>
<path fill-rule="evenodd" clip-rule="evenodd" d="M52.4753 0.015625H41.1338C41.7005 3.0562 44.017 5.49703 47.0135 6.29204C47.6936 6.47336 48.409 6.571 49.1458 6.571H57.8874C57.9653 6.20836 58.0008 5.83875 58.0008 5.45519C58.0008 2.44948 55.5284 0.015625 52.4753 0.015625Z" fill="url(#paint0_linear_2302_123547)"/>
<defs>
<linearGradient id="paint0_linear_2302_123547" x1="41.1352" y1="6.57073" x2="58.0008" y2="6.57073" gradientUnits="userSpaceOnUse">
<stop offset="0.3" stop-color="#00B4E6"/>
<stop offset="1" stop-color="#088CCB"/>
</linearGradient>
</defs>
</svg>
