<svg width="37" height="11" viewBox="0 0 37 11" fill="none" xmlns="http://www.w3.org/2000/svg">
<path d="M15.9158 10.8412H12.9404L14.8014 0.192871H17.7766L15.9158 10.8412Z" fill="white"/>
<path d="M26.7021 0.45334C26.1152 0.237887 25.1844 0 24.0334 0C21.0952 0 19.0261 1.4499 19.0134 3.52283C18.989 5.05223 20.4948 5.9017 21.621 6.41165C22.7722 6.93274 23.1635 7.27286 23.1635 7.73734C23.1518 8.4507 22.2333 8.77952 21.3767 8.77952C20.1888 8.77952 19.5523 8.60999 18.585 8.21311L18.1932 8.04298L17.7769 10.4333C18.4747 10.7275 19.7604 10.9886 21.0952 11C24.2171 11 26.2496 9.57253 26.2737 7.3635C26.2856 6.15133 25.4904 5.22252 23.7762 4.46354C22.7356 3.97632 22.0982 3.6478 22.0982 3.14929C22.1105 2.6961 22.6373 2.23192 23.812 2.23192C24.7793 2.20918 25.49 2.42434 26.0283 2.63964L26.2975 2.75271L26.7021 0.45334Z" fill="white"/>
<path fill-rule="evenodd" clip-rule="evenodd" d="M32.0278 0.192871H34.3293L36.7296 10.841H33.9748C33.9748 10.841 33.7052 9.61755 33.6197 9.24371H29.7996C29.6892 9.52676 29.1752 10.841 29.1752 10.841H26.0532L30.4727 1.07636C30.7789 0.385288 31.3181 0.192871 32.0278 0.192871ZM31.8443 4.08961C31.8443 4.08961 30.9014 6.45718 30.6564 7.06891H33.1294C33.0071 6.53653 32.4437 3.98768 32.4437 3.98768L32.2357 3.07016C32.1482 3.30643 32.0215 3.63127 31.9361 3.85036C31.8782 3.99887 31.8393 4.09879 31.8443 4.08961Z" fill="white"/>
<path d="M10.4557 0.192871L7.5419 7.45398L7.22349 5.98135C6.68478 4.28211 4.99527 2.43593 3.10986 1.51796L5.77885 10.8299H8.9252L13.6019 0.192871H10.4557V0.192871Z" fill="white"/>
<path d="M4.83603 0.192871H0.0489737L0 0.408023C3.7342 1.29167 6.20729 3.42166 7.22337 5.9818L6.18272 1.08796C6.01139 0.407872 5.48489 0.215305 4.83603 0.192871Z" fill="white"/>
</svg>
