<svg width="51" height="16" viewBox="0 0 51 16" fill="none" xmlns="http://www.w3.org/2000/svg">
<path d="M21.8013 15.5904H17.7412L20.2807 0.457031H24.3406L21.8013 15.5904Z" fill="#00579F"/>
<path d="M36.5195 0.827881C35.7187 0.521679 34.4485 0.183594 32.8779 0.183594C28.8685 0.183594 26.045 2.2442 26.0277 5.19025C25.9944 7.36384 28.0492 8.5711 29.586 9.29584C31.1568 10.0364 31.6908 10.5198 31.6908 11.1799C31.6748 12.1937 30.4215 12.6611 29.2526 12.6611C27.6316 12.6611 26.763 12.4201 25.4431 11.8561L24.9085 11.6143L24.3403 15.0114C25.2926 15.4295 27.047 15.8006 28.8685 15.8168C33.1286 15.8168 35.9021 13.7881 35.935 10.6486C35.9512 8.92587 34.8661 7.60584 32.5269 6.52718C31.1069 5.83475 30.2372 5.36785 30.2372 4.65937C30.2539 4.0153 30.9728 3.3556 32.5758 3.3556C33.8957 3.32329 34.8655 3.62907 35.6001 3.93505L35.9674 4.09575L36.5195 0.827881Z" fill="#00579F"/>
<path fill-rule="evenodd" clip-rule="evenodd" d="M43.7871 0.457031H46.9276L50.2031 15.5902H46.4438C46.4438 15.5902 46.0759 13.8514 45.9594 13.3201H40.7465C40.5958 13.7224 39.8944 15.5902 39.8944 15.5902H35.6343L41.665 1.71265C42.0829 0.730495 42.8187 0.457031 43.7871 0.457031ZM43.5365 5.99572C43.5365 5.99572 42.2499 9.36052 41.9155 10.2299H45.2903C45.1233 9.47329 44.3544 5.85086 44.3544 5.85086L44.0707 4.54688C43.9512 4.88265 43.7784 5.34429 43.6619 5.65567C43.5828 5.86675 43.5297 6.00877 43.5365 5.99572Z" fill="#00579F"/>
<path d="M14.3502 0.457031L10.374 10.7765L9.93954 8.68362C9.20443 6.26867 6.89896 3.64487 4.32617 2.34025L7.96821 15.5744H12.2617L18.6434 0.457031H14.3502V0.457031Z" fill="#00579F"/>
<path d="M6.68166 0.457031H0.149348L0.0825195 0.762806C5.17813 2.01864 8.55286 5.04579 9.93938 8.68427L8.51933 1.72913C8.28554 0.762592 7.56708 0.488914 6.68166 0.457031Z" fill="#FAA61A"/>
</svg>
